<svg width="32" height="32" viewBox="0 0 32 32" xmlns="http://www.w3.org/2000/svg">
  <!-- Background -->
  <rect width="32" height="32" fill="#1a1a1a" rx="2"/>
  
  <!-- Industrial Grid/Technical feel -->
  <path d="M4 4h24v24H4z" fill="none" stroke="#808080" stroke-width="0.5" opacity="0.3"/>
  
  <!-- W (Grid Aligned) -->
  <path d="M6 10v12h4v-8h2v8h4v-8h2v8h4V10h-4v8h-2v-8h-4v8h-2v-8z" fill="#BFBFBF" style="display:none;"/>
  
  <!-- Modern Clean WB -->
  <!-- W -->
  <path d="M6 10 L9 22 L12 14 L15 22 L18 10" 
        stroke="#BFBFBF" 
        stroke-width="2.5" 
        fill="none" 
        stroke-linecap="round" 
        stroke-linejoin="round"/>
        
  <!-- B -->
  <path d="M21 10 V22 M21 10 H25 A3 3 0 0 1 25 16 H21 M21 16 H26 A3 3 0 0 1 26 22 H21" 
        stroke="#808080" 
        stroke-width="2.5" 
        fill="none" 
        stroke-linecap="round" 
        stroke-linejoin="round"/>
</svg>